<svg width="136" height="58" viewBox="0 0 136 58" fill="none" xmlns="http://www.w3.org/2000/svg">
<g opacity="0.6">
<g clip-path="url(#clip0_1_3162)">
<path d="M43.2563 35.2275V33.6815H44.3868C45.3235 33.6815 45.5173 33.7186 45.5173 33.8671C45.5173 34.0155 45.3449 34.0526 44.656 34.0526H43.7946V34.9183H44.4406C44.9467 34.9183 45.0866 34.9554 45.0866 35.1038C45.0866 35.2522 44.9467 35.2893 44.4406 35.2893H43.7946V36.0314C43.7946 36.7363 43.7838 36.7734 43.5255 36.7734H43.2563V35.2275ZM48.855 36.6374C48.715 36.5755 48.5535 36.4518 48.5105 36.3653C48.4674 36.2787 48.4243 35.648 48.4243 34.9554V33.6815H48.6935C48.9627 33.6815 48.9627 33.6939 48.9627 34.7822C48.9627 35.6232 49.0056 35.9324 49.1349 36.0808C49.5333 36.5383 50.287 36.4024 50.47 35.8458C50.5346 35.6603 50.5777 35.1038 50.5777 34.5967C50.5777 33.6938 50.5777 33.6815 50.8576 33.6815H51.1377L51.0946 34.9801C51.0515 36.6126 50.9977 36.6992 49.8995 36.7363C49.4795 36.761 49.0057 36.7116 48.855 36.6374ZM54.6691 35.2275V33.6815H55.5842C56.3594 33.6815 56.5317 33.7186 56.7147 33.9289C57.1239 34.3989 56.8762 35.2893 56.3487 35.2893C56.2087 35.2893 56.3057 35.4748 56.704 36.0066C57.2316 36.6868 57.2423 36.7116 56.984 36.7487C56.7687 36.7858 56.5963 36.6375 56.1656 36.1056C55.8642 35.7222 55.5196 35.413 55.412 35.413C55.2397 35.413 55.2075 35.5119 55.2075 36.0932C55.2075 36.7363 55.1966 36.7734 54.9383 36.7734H54.6691V35.2275ZM56.3271 34.7699C56.5317 34.3989 56.2842 34.1144 55.7027 34.0773L55.2074 34.0402V35.0543L55.7027 35.0172C56.0364 34.9925 56.2518 34.9059 56.3271 34.7699ZM60.4831 35.2275C60.4831 33.3229 60.5154 33.2982 61.6889 34.6338L62.5288 35.5985V34.6338C62.5288 33.7063 62.5288 33.6815 62.798 33.6815H63.0671V35.2275C63.0671 36.3653 63.0347 36.7734 62.9379 36.7734C62.8626 36.7734 62.3996 36.3158 61.9151 35.7593L61.0215 34.7328V35.7593C61.0215 36.7612 61.0215 36.7734 60.7523 36.7734H60.4831V35.2275ZM67.1585 35.1656V33.5579H67.8045V36.7734H67.1585V35.1656ZM72.7572 35.413V34.0526H72.1651C71.7128 34.0526 71.5729 34.0155 71.5729 33.8671C71.5729 33.7063 71.8096 33.6815 73.0264 33.6815C74.243 33.6815 74.4799 33.7063 74.4799 33.8671C74.4799 34.0155 74.3398 34.0526 73.8877 34.0526H73.2956V36.7734H72.7572V35.413ZM77.9576 36.6497C77.5807 36.4766 77.4946 36.1303 77.4946 34.8688C77.4946 33.6815 77.4946 33.6815 77.7638 33.6815C78.0329 33.6815 78.0329 33.6939 78.0329 34.708C78.0329 35.8706 78.1729 36.2169 78.6681 36.3405C78.9911 36.4147 79.411 36.254 79.5617 35.9819C79.6048 35.9077 79.648 35.3635 79.648 34.7699C79.648 33.6939 79.648 33.6815 79.9171 33.6815H80.1863V34.9554C80.1863 36.3034 80.1539 36.4147 79.7879 36.6375C79.5187 36.7981 78.3021 36.8105 77.9576 36.6497ZM83.4163 35.2275V33.6815H84.2346C85.1175 33.6815 85.4297 33.8052 85.5589 34.2133C85.6881 34.6091 85.4835 35.1534 85.1821 35.2398C85.0421 35.2769 84.9237 35.3388 84.9237 35.3759C84.9237 35.413 85.139 35.7222 85.4082 36.0685C85.8711 36.6745 85.8818 36.7116 85.6558 36.7612C85.4728 36.7858 85.279 36.625 84.8591 36.1056C84.1377 35.2027 83.9548 35.1905 83.9548 36.0932C83.9548 36.7363 83.9439 36.7734 83.6856 36.7734H83.4163V35.2275ZM84.9667 34.7699C85.1605 34.4113 84.9238 34.1144 84.3961 34.0773L83.9547 34.0402V35.0543L84.3961 35.0172C84.6868 34.9925 84.8913 34.9059 84.9667 34.7699ZM89.338 35.2275V33.6815H90.4147C91.2975 33.6815 91.4914 33.7186 91.4914 33.8671C91.4914 34.0155 91.3299 34.0526 90.6839 34.0526H89.8764V34.9183H90.4685C90.91 34.9183 91.0607 34.9678 91.0607 35.0914C91.0607 35.2275 90.8992 35.2893 90.5008 35.314L89.9302 35.3511V36.3405L90.7162 36.3776C91.3084 36.4024 91.4914 36.452 91.4914 36.5879C91.4914 36.7363 91.2868 36.7734 90.4147 36.7734H89.338V35.2275ZM37.636 30.9978C37.4207 30.936 37.3023 30.5897 37.3992 30.3052C37.4315 30.1939 37.636 30.0703 37.8514 30.0332C38.0775 29.9961 38.3251 29.9095 38.4112 29.86C38.6589 29.7117 38.9496 28.9697 38.9496 28.4625C38.9496 27.7947 37.8191 24.0102 37.5499 23.8C37.4314 23.7134 37.3346 23.5526 37.3346 23.4661C37.3346 23.33 37.539 23.2929 38.2497 23.2929C38.9604 23.2929 39.1649 23.33 39.1649 23.4661C39.1649 23.5526 39.068 23.7134 38.9496 23.8C38.745 23.9731 38.7558 23.9979 39.1326 25.3707C39.348 26.1251 39.5524 26.7558 39.5956 26.7558C39.7033 26.7558 40.4785 23.936 40.4031 23.8C40.3708 23.7258 40.2416 23.664 40.1231 23.664C40.0154 23.664 39.9186 23.5774 39.9186 23.4784C39.9186 23.33 40.0692 23.2929 40.6184 23.2929C41.1568 23.2929 41.3183 23.33 41.3183 23.4784C41.3183 23.565 41.2429 23.7011 41.1568 23.7505C41.0706 23.8124 40.683 24.9131 40.2954 26.1993C39.4556 28.9943 39.3264 29.3777 38.9173 30.0703C38.6481 30.5279 38.0451 31.1091 37.8729 31.0721C37.8406 31.0597 37.7329 31.0349 37.636 30.9978ZM94.3446 30.936C94.1722 30.8618 93.9353 30.7134 93.817 30.6021C93.171 29.9591 93.5586 28.8831 94.3231 29.2293C94.5384 29.3159 94.5384 29.3406 94.3769 29.4148C94.0539 29.5632 94.14 30.0703 94.5384 30.3547C95.249 30.8741 96.5518 30.4289 96.5518 29.6498C96.5518 29.2293 96.304 29.0932 95.2167 28.9323C94.1185 28.7716 93.7093 28.549 93.6017 28.0666C93.5155 27.6585 93.7093 27.1143 93.9678 27.0401C94.2477 26.9536 94.2369 26.9041 93.9247 26.5702C93.2248 25.8281 93.3863 23.9978 94.2046 23.4165C94.6461 23.1074 95.5828 23.0827 96.0134 23.3671C96.2934 23.565 96.3256 23.565 96.5625 23.3671C96.9501 23.058 97.4992 23.1074 97.65 23.4661C97.8653 24.035 97.4777 24.4926 97.1009 24.1092C96.9932 23.9979 96.8317 23.9113 96.724 23.9113C96.5733 23.9113 96.5625 23.9484 96.6702 24.1834C96.8425 24.5544 96.8317 25.8777 96.6487 26.3106C96.401 26.9042 95.9919 27.1639 95.1844 27.2381C94.6352 27.3 94.4415 27.3618 94.4198 27.5102C94.3984 27.671 94.549 27.7205 95.335 27.7947C96.8317 27.9431 97.3054 28.3141 97.3054 29.3653C97.3054 30.0703 97.0254 30.5279 96.401 30.8494C95.9058 31.1091 94.8722 31.1462 94.3446 30.936ZM95.4751 26.6321C95.9165 26.36 96.0457 24.7399 95.6904 24.0721C95.4213 23.565 94.9259 23.5032 94.6784 23.9484C94.3123 24.6039 94.3446 25.8654 94.7322 26.4343C94.9691 26.7805 95.1521 26.83 95.4751 26.6321ZM32.145 29.724C31.4021 29.2664 31.0252 28.4625 30.7668 26.7187C30.5838 25.5314 30.25 25.148 29.4318 25.148H28.8288V26.3848C28.8288 27.4607 28.8611 27.6586 29.0442 27.8689C29.1626 28.0049 29.3563 28.1162 29.4856 28.1162C29.6471 28.1162 29.7009 28.1781 29.6686 28.4007C29.6363 28.6605 29.5933 28.6728 28.3659 28.7099L27.1061 28.747V28.4254C27.1061 28.2028 27.16 28.1162 27.3106 28.1162C27.8275 28.1162 27.8598 27.9431 27.8598 24.6533C27.8598 22.959 27.8275 21.4997 27.7951 21.3884C27.7522 21.2647 27.6014 21.1905 27.4184 21.1905C27.16 21.1905 27.1061 21.141 27.1061 20.8937V20.5845L28.7535 20.6092C30.1747 20.6339 30.4438 20.671 30.7561 20.8813C31.3483 21.277 31.5636 21.7099 31.6067 22.6004C31.6605 23.5279 31.4559 24.1463 30.9606 24.542L30.6484 24.8018L31.0683 25.2222C31.5959 25.7293 31.8005 26.2116 32.0158 27.4607C32.285 28.9572 32.6295 29.4766 33.3832 29.4766C33.7062 29.4766 33.8892 29.6374 33.8892 29.9219C33.8892 29.9466 33.5877 29.9713 33.2217 29.9713C32.7695 29.959 32.4142 29.8848 32.145 29.724ZM29.6148 24.4802C30.0885 24.2576 30.3039 23.9484 30.4438 23.2929C30.6915 22.217 30.2393 21.4626 29.238 21.2523L28.8288 21.1657V22.9095C28.8288 24.5791 28.8396 24.6533 29.0442 24.6533C29.1626 24.6533 29.421 24.5791 29.6148 24.4802ZM69.8825 29.7116C69.6887 29.6498 69.2256 29.2663 68.8381 28.8583L68.1598 28.1162L67.9552 28.3759C67.2877 29.2293 66.1034 29.1427 65.5004 28.2152C65.0375 27.4731 65.3928 25.9272 66.1787 25.2593L66.491 24.9996L66.2326 24.3565C65.6619 22.9466 66.1895 21.1905 67.1908 21.1905C67.6538 21.1905 68.0844 21.4997 68.289 22.0067C68.5582 22.6498 68.3751 23.565 67.8368 24.2823L67.4384 24.8018L67.7507 25.4449C68.2566 26.5085 68.2352 26.5085 68.6766 25.4201C68.9781 24.6657 69.1504 24.3813 69.4088 24.2205C69.9902 23.8866 70.4854 24.2329 70.4963 24.9749C70.4963 25.4325 70.281 25.6798 69.9364 25.618C69.7534 25.5933 69.678 25.482 69.6564 25.247C69.6026 24.7028 69.4303 24.8389 69.0966 25.6798C68.5583 26.9908 68.5691 27.065 69.2904 28.042C70.001 28.9819 70.281 29.2169 70.7655 29.2293C70.9484 29.2293 71.1531 29.2788 71.2391 29.3406C71.5943 29.6003 70.4531 29.9095 69.8825 29.7116ZM67.4169 28.1657C67.5138 28.1162 67.6431 27.9802 67.7076 27.8565C67.7937 27.6586 67.7184 27.4113 67.2985 26.5703C67.0184 25.989 66.7386 25.5314 66.6848 25.5562C66.4694 25.6427 66.1895 26.4714 66.1895 27.0403C66.1895 27.9431 66.7493 28.4625 67.4169 28.1657ZM67.4384 23.8247C67.6753 23.4042 67.7076 22.1922 67.4923 21.883C67.1585 21.4255 66.7278 21.8212 66.7278 22.588C66.7278 23.1074 67.0184 24.1587 67.1585 24.1587C67.2016 24.1587 67.3308 24.0102 67.4384 23.8247Z" fill="#3B4D62"/>
<path d="M33.8239 28.7467C33.7055 28.6849 33.5334 28.4623 33.458 28.252C33.1456 27.3616 33.6732 26.3846 34.9006 25.6425L35.6112 25.2097V24.5789C35.6112 23.8369 35.482 23.6637 34.9544 23.6637C34.5237 23.6637 34.4052 23.7874 34.2437 24.3439C34.1038 24.851 33.6085 24.9499 33.5008 24.4924C33.3502 23.7503 34.0285 23.169 35.0514 23.169C35.7835 23.169 36.2895 23.3917 36.4726 23.775C36.5264 23.9111 36.5802 24.851 36.5802 25.9146C36.5802 26.9535 36.6232 27.881 36.677 27.9676C36.7309 28.0789 36.8601 28.1036 37.0431 28.0418C37.4092 27.9429 37.4199 28.1531 37.0646 28.5489C36.7201 28.957 36.2356 28.957 35.9557 28.5612L35.762 28.2644L35.4282 28.4994C35.0514 28.7715 34.1577 28.9075 33.8239 28.7467ZM35.3744 27.8687C35.5789 27.646 35.6112 27.4729 35.6112 26.7556C35.6112 26.2733 35.5789 25.8899 35.5465 25.8899C35.3098 25.8899 34.6206 26.4959 34.4807 26.8298C34.2869 27.2998 34.2869 27.374 34.4269 27.7944C34.5561 28.2026 35.0298 28.2273 35.3744 27.8687ZM50.4155 28.6354C48.9943 27.8687 48.6067 25.5436 49.6403 23.9853C50.1679 23.1938 51.2984 22.8846 52.0413 23.3298C53.1934 24.0224 53.6672 25.9764 53.0319 27.4358C52.5258 28.6107 51.363 29.1425 50.4155 28.6354ZM51.6429 28.1778C52.0844 27.9181 52.2997 27.2008 52.2997 25.9764C52.2997 25.1602 52.2459 24.8386 52.0628 24.4058C51.5999 23.3546 50.8031 23.3175 50.3294 24.3316C50.0172 24.9994 49.9955 26.9535 50.2863 27.5842C50.6309 28.3139 51.0831 28.5241 51.6429 28.1778ZM54.8084 28.6107C54.3346 28.2891 54.2377 27.7821 54.2377 25.6796C54.2377 24.0471 54.2269 23.9111 54.0224 23.7874C53.5809 23.5153 53.7748 23.3174 54.5069 23.268L55.2067 23.2309V25.3581C55.2067 26.5206 55.2497 27.6213 55.3035 27.7821C55.5189 28.4376 56.3479 28.2891 56.6494 27.5595C56.7787 27.2503 56.8218 26.7432 56.8218 25.5312C56.8218 24.0471 56.8002 23.8987 56.6064 23.7627C56.1865 23.4535 56.348 23.2927 57.0909 23.2927H57.7908V25.321C57.7908 27.5224 57.866 27.9923 58.2214 27.9923C58.6412 27.9923 58.4152 28.4004 57.9092 28.5736C57.6509 28.6602 57.3493 28.7591 57.2417 28.7962C57.0802 28.858 57.0371 28.8086 57.0371 28.5736C57.0371 28.116 56.9294 28.0913 56.531 28.487C56.0788 28.9446 55.3575 28.9941 54.8084 28.6107ZM81.9729 28.5736C81.7576 28.3262 81.693 28.1284 81.693 27.745C81.693 26.8051 82.1666 26.1867 83.4048 25.5188L83.9754 25.222L83.9325 24.5542C83.8786 23.8369 83.7494 23.6637 83.2756 23.6637C82.8449 23.6637 82.5543 23.874 82.5543 24.1955C82.5543 24.7521 82.016 24.987 81.8006 24.5295C81.6391 24.1708 81.9406 23.5648 82.3928 23.3422C82.8235 23.1319 83.9431 23.1072 84.3093 23.3051C84.8046 23.5648 84.8692 23.8492 84.923 26.0135L84.9768 28.0542L85.2783 28.0294C85.6336 28.0047 85.6551 28.2273 85.3213 28.586C84.9444 28.9941 84.1693 28.8828 84.1693 28.4252C84.1693 28.1778 84.1046 28.1902 83.7278 28.4994C83.5448 28.6478 83.1679 28.7838 82.8341 28.8209C82.3066 28.8828 82.2205 28.858 81.9729 28.5736ZM83.6741 27.8563C83.9325 27.6213 83.9541 27.5224 83.9541 26.7432C83.9541 26.2733 83.9326 25.8899 83.9003 25.8899C83.7172 25.8899 82.9742 26.4217 82.8344 26.6566C82.6298 26.9906 82.6083 27.7573 82.7913 27.9676C82.985 28.1902 83.3511 28.1407 83.6741 27.8563ZM98.6291 28.7096C98.2846 28.5241 98.1337 27.8192 98.2952 27.2132C98.4459 26.6319 98.9951 26.063 99.8888 25.5683L100.546 25.2097L100.503 24.5542C100.46 23.8245 100.341 23.6637 99.8351 23.6637C99.3935 23.6637 99.232 23.8121 99.0922 24.3068C99.006 24.616 98.9091 24.7273 98.683 24.7521C98.4462 24.7892 98.3708 24.7273 98.317 24.48C98.2308 24.0719 98.4785 23.6143 98.9414 23.3422C99.1892 23.1938 99.4798 23.1567 100.061 23.1938C101.353 23.268 101.504 23.5895 101.504 26.3598V28.1407L101.827 28.0542C102.225 27.9552 102.247 28.1407 101.881 28.5489C101.547 28.9446 101.127 28.9446 100.826 28.5612L100.599 28.2768L100.255 28.5118C99.835 28.7962 98.9521 28.9075 98.6291 28.7096ZM100.266 27.8068C100.502 27.5471 100.535 27.3987 100.535 26.6937C100.535 25.8404 100.492 25.7786 100.018 26.063C99.3611 26.4588 99.0275 27.2132 99.2642 27.7944C99.4257 28.2273 99.9102 28.2273 100.266 27.8068ZM41.9636 28.6107C41.9636 28.5365 42.0604 28.3139 42.1897 28.1284C42.3943 27.7944 42.4159 27.646 42.3728 25.9517C42.3405 24.3934 42.3082 24.1213 42.1574 23.9853C41.8452 23.7256 41.9206 23.4535 42.3189 23.3793C42.502 23.3422 42.7711 23.2803 42.9111 23.2309C43.1049 23.1567 43.148 23.1814 43.148 23.3793C43.148 23.6143 43.1695 23.6143 43.6648 23.3422C44.0847 23.0948 44.2354 23.0701 44.5584 23.169C44.763 23.2309 45.0538 23.4288 45.1937 23.6019L45.4413 23.8987L45.7535 23.6019C46.4318 22.9341 47.347 22.9464 47.896 23.6143C48.1436 23.9111 48.1544 24.0348 48.2082 25.9517C48.2512 27.646 48.2944 28.0047 48.4559 28.2026C48.8004 28.6478 48.6927 28.7344 47.7776 28.7344C47.0024 28.7344 46.9162 28.7096 46.9162 28.4994C46.9162 28.3757 46.9916 28.2397 47.0777 28.1902C47.3146 28.0913 47.3146 24.9252 47.0669 24.3316C46.7115 23.4659 46.044 23.7256 45.8395 24.8015C45.6457 25.7662 45.7319 27.9058 45.9795 28.2026C46.3241 28.6478 46.2164 28.7344 45.3012 28.7344C44.526 28.7344 44.4399 28.7096 44.4399 28.4994C44.4399 28.3757 44.5152 28.2397 44.6014 28.1902C44.7306 28.1407 44.7629 27.8068 44.7629 26.3227V24.5047L44.4506 24.1461C44.0953 23.7503 44.0308 23.7256 43.7831 23.9482C43.4279 24.2574 43.3633 24.6284 43.3633 26.3846C43.3633 27.8192 43.3956 28.1407 43.5248 28.1902C43.6109 28.2397 43.6863 28.3757 43.6863 28.4994C43.6863 28.7096 43.6002 28.7344 42.825 28.7344C42.2974 28.7344 41.9636 28.6849 41.9636 28.6107ZM59.2335 28.5983C59.1905 28.5118 59.2766 28.351 59.4165 28.2273C59.6642 28.0171 59.6749 27.9552 59.6749 26.298C59.6749 24.3687 59.6102 23.9729 59.2872 23.874C58.9104 23.7627 59.1042 23.5277 59.7502 23.2927C60.4071 23.0577 60.4825 23.0701 60.4825 23.4535C60.4825 23.7008 60.4825 23.7008 60.7301 23.4535C61.0422 23.1072 61.6453 22.9959 61.9898 23.2061C62.3342 23.404 62.5066 23.9482 62.3128 24.2079C62.1189 24.4924 61.6991 24.4553 61.6344 24.1584C61.5483 23.7874 61.0746 23.8369 60.8378 24.2326C60.6978 24.4924 60.644 24.9128 60.6115 26.063C60.5686 27.6213 60.6654 28.2397 60.967 28.2397C61.0531 28.2397 61.1285 28.351 61.1285 28.487C61.1285 28.7096 61.0531 28.7344 60.2241 28.7344C59.6534 28.7344 59.2873 28.6849 59.2335 28.5983ZM73.9409 28.487C73.9409 28.3262 74.0162 28.2397 74.1562 28.2397C74.2639 28.2397 74.4145 28.1284 74.4792 28.0047C74.6083 27.7202 74.6299 21.586 74.5007 21.3634C74.4577 21.2892 74.3177 21.1903 74.1885 21.1408C74.0378 21.0913 73.9409 20.9553 73.9409 20.8069C73.9409 20.5719 74.0162 20.5719 76.1266 20.5966L78.3014 20.6337L78.3553 21.5365C78.3982 22.3157 78.3876 22.427 78.2261 22.427C78.1184 22.427 78.0215 22.291 77.9784 22.056C77.8708 21.4994 77.5585 21.3387 76.5249 21.2892L75.6098 21.2521L75.5774 22.7114C75.5451 24.3439 75.5773 24.4058 76.2987 24.2079C76.5894 24.1213 76.7294 23.9977 76.8479 23.7008C77.1601 22.9341 77.2786 23.1938 77.2786 24.5913C77.2786 25.6796 77.2571 25.8899 77.1062 25.8899C77.0201 25.8899 76.8909 25.7291 76.8371 25.5188C76.7509 25.2468 76.611 25.1107 76.3096 25.0118C75.5989 24.7644 75.5559 24.851 75.5559 26.2856C75.5559 27.6831 75.685 28.1531 76.0727 28.2149C76.2234 28.2397 76.3096 28.3386 76.3096 28.4994C76.3096 28.722 76.2234 28.7344 75.1253 28.7344C74.0162 28.7344 73.9409 28.722 73.9409 28.487ZM79.1628 28.5983C79.1197 28.5365 79.2166 28.3386 79.3781 28.1778L79.6581 27.8687L79.6258 24.6408C79.5935 21.4376 79.5935 21.4005 79.3566 21.215C78.8612 20.844 79.0659 20.6708 80.2718 20.3864L80.6163 20.2998V24.1461C80.6163 27.8563 80.6271 27.9923 80.8316 28.1407C80.9501 28.2273 81.047 28.4004 81.047 28.5118C81.047 28.7096 80.9284 28.7344 80.1426 28.7344C79.6149 28.7344 79.1951 28.6725 79.1628 28.5983ZM86.215 28.5489C86.215 28.4376 86.2903 28.2149 86.3873 28.0542C86.6457 27.6089 86.5703 24.2079 86.3012 23.9853C85.9781 23.7132 86.0643 23.4535 86.5165 23.3793C86.7318 23.3422 87.001 23.2803 87.1087 23.2309C87.2486 23.169 87.2917 23.2061 87.2917 23.404C87.2917 23.7256 87.3455 23.7256 87.6361 23.4164C87.9484 23.0825 88.5728 23.033 89.1543 23.3051C89.7034 23.5648 89.8111 24.0224 89.8757 26.1125C89.9187 27.7326 89.9618 28.0294 90.1233 28.1655C90.2201 28.252 90.3064 28.4252 90.3064 28.5365C90.3064 28.6973 90.1663 28.7344 89.445 28.7344C88.9175 28.7344 88.5837 28.6849 88.5837 28.6107C88.5837 28.5365 88.6914 28.3139 88.8098 28.116C89.0251 27.7944 89.0359 27.646 88.9928 26.2362C88.939 24.5913 88.7883 23.9977 88.3576 23.8492C88.1853 23.7874 88.0455 23.8492 87.8408 24.0842C87.5716 24.4058 87.5609 24.4553 87.5286 26.2609C87.4963 27.8563 87.5178 28.1284 87.6578 28.1902C87.7547 28.2273 87.8301 28.3757 87.8301 28.4994C87.8301 28.7096 87.7439 28.7344 87.0226 28.7344C86.3658 28.7344 86.215 28.6973 86.215 28.5489ZM91.0601 28.4994C91.0601 28.3757 91.1353 28.2026 91.2216 28.116C91.3507 27.9923 91.3831 27.5966 91.3831 25.9888C91.3831 24.0966 91.3722 24.01 91.1677 23.9482C90.8017 23.8369 90.9738 23.503 91.4799 23.3298C91.7383 23.2432 92.0397 23.1443 92.1474 23.1072C92.3412 23.033 92.352 23.1443 92.352 25.5065C92.352 27.5347 92.3843 28.0047 92.5135 28.1655C92.5996 28.2644 92.675 28.4376 92.675 28.5365C92.675 28.6973 92.5349 28.7344 91.8675 28.7344C91.1462 28.7344 91.0601 28.7096 91.0601 28.4994ZM102.796 28.4994C102.796 28.3757 102.871 28.2397 102.957 28.1902C103.086 28.1407 103.119 27.7944 103.119 26.2114C103.119 24.1955 103.086 23.9111 102.828 23.9111C102.742 23.9111 102.688 23.8245 102.71 23.7132C102.731 23.5772 102.946 23.4411 103.28 23.3546C103.862 23.1814 103.98 23.2061 103.98 23.4906C103.98 23.6266 104.055 23.6143 104.303 23.404C104.712 23.0454 105.509 23.0454 105.907 23.3917C106.413 23.8121 106.51 24.2079 106.564 26.162C106.596 27.374 106.661 28.0294 106.758 28.1407C106.823 28.2149 106.887 28.3881 106.887 28.5118C106.887 28.7096 106.79 28.7344 106.08 28.7344C105.358 28.7344 105.272 28.7096 105.272 28.4994C105.272 28.3757 105.347 28.2397 105.434 28.1902C105.563 28.1407 105.595 27.8192 105.595 26.4588C105.595 24.6531 105.52 24.2697 105.132 23.9729C104.486 23.4906 104.163 24.1955 104.109 26.2485C104.066 27.646 104.088 27.8068 104.292 28.1284C104.422 28.3139 104.519 28.5365 104.519 28.6107C104.519 28.6849 104.185 28.7344 103.657 28.7344C102.882 28.7344 102.796 28.7096 102.796 28.4994ZM107.199 24.6779C106.704 24.2079 107.027 23.169 107.684 23.169C108.115 23.169 108.395 23.503 108.395 24.0348C108.395 24.8139 107.738 25.1602 107.199 24.6779ZM108.05 24.5789C108.491 24.2326 108.244 23.2927 107.716 23.2927C107.145 23.2927 106.887 24.2203 107.339 24.5789C107.468 24.6902 107.63 24.7768 107.695 24.7768C107.759 24.7768 107.921 24.6902 108.05 24.5789Z" fill="#3B4D62"/>
<path d="M107.436 24.0718C107.425 23.5895 107.447 23.54 107.684 23.54C107.996 23.54 108.147 23.7502 107.985 23.9357C107.899 24.0347 107.899 24.146 107.975 24.3068C108.05 24.4552 108.039 24.5294 107.964 24.5294C107.899 24.5294 107.824 24.4428 107.791 24.3439C107.705 24.0965 107.565 24.1089 107.501 24.381C107.469 24.4923 107.447 24.3562 107.436 24.0718ZM107.856 23.7873C107.856 23.7255 107.781 23.6637 107.695 23.6637C107.608 23.6637 107.533 23.7255 107.533 23.7873C107.533 23.8615 107.608 23.911 107.695 23.911C107.781 23.911 107.856 23.8615 107.856 23.7873ZM91.4907 22.0559C91.2323 21.7591 91.2106 21.351 91.4476 20.9676C91.8244 20.3492 92.5566 20.8934 92.4058 21.6849C92.2874 22.2909 91.846 22.464 91.4907 22.0559Z" fill="#3B4D62"/>
</g>
</g>
<defs>
<clipPath id="clip0_1_3162">
<rect width="81.3" height="16.4734" fill="white" transform="translate(27.1 20.2998)"/>
</clipPath>
</defs>
</svg>
