<svg width="136" height="58" viewBox="0 0 136 58" fill="none" xmlns="http://www.w3.org/2000/svg">
<g opacity="0.6">
<g clip-path="url(#clip0_1_3167)">
<path d="M90.7346 21.6391V21.4071H90.8811C90.9562 21.4071 91.0362 21.4241 91.0362 21.5172C91.0362 21.6323 90.9546 21.6391 90.8635 21.6391H90.7346ZM90.7346 21.7359H90.8584L91.0463 22.0606H91.1676L90.9652 21.7302C91.0688 21.7168 91.1491 21.658 91.1491 21.5238C91.1491 21.3758 91.0665 21.3105 90.8976 21.3105H90.6258V22.0606H90.7346V21.7359ZM90.8653 22.3354C91.2019 22.3354 91.4896 22.0606 91.4896 21.6837C91.4896 21.3105 91.2019 21.0352 90.8653 21.0352C90.5245 21.0352 90.2373 21.3105 90.2373 21.6837C90.2373 22.0606 90.5245 22.3354 90.8651 22.3354H90.8653ZM90.3616 21.6837C90.3616 21.3756 90.582 21.144 90.8653 21.144C91.1449 21.144 91.3651 21.3756 91.3651 21.6837C91.3651 21.9968 91.1449 22.2272 90.8653 22.2272C90.582 22.2272 90.3616 21.9968 90.3616 21.6837ZM108.287 32.3162V32.1284H108.406C108.467 32.1284 108.531 32.1423 108.531 32.2172C108.531 32.3106 108.465 32.3164 108.391 32.3164L108.287 32.3162ZM108.287 32.3941H108.388L108.54 32.6572H108.638L108.474 32.3898C108.558 32.3787 108.623 32.3316 108.623 32.2226C108.623 32.1029 108.556 32.0499 108.419 32.0499H108.199V32.6572H108.287V32.3941ZM108.393 32.8802C108.666 32.8802 108.899 32.6572 108.899 32.3523C108.899 32.0499 108.666 31.8271 108.393 31.8271C108.117 31.8271 107.884 32.0499 107.884 32.3523C107.884 32.6572 108.117 32.8802 108.393 32.8802ZM107.985 32.3523C107.985 32.1029 108.163 31.915 108.393 31.915C108.62 31.915 108.798 32.1029 108.798 32.3523C108.798 32.606 108.62 32.7923 108.393 32.7923C108.163 32.7923 107.985 32.606 107.985 32.3523ZM31.6369 25.366C31.5977 25.5218 31.5416 25.551 31.4524 25.551H28.6967V21.5853C28.6967 21.4826 28.7222 21.4269 28.868 21.3864L28.9153 21.3717V21.1271H27.6V21.3717L27.6484 21.3865C27.7926 21.4269 27.8186 21.4826 27.8186 21.5853V25.8967C27.8186 25.9981 27.7926 26.0547 27.6484 26.0961L27.6 26.1091V26.3546H31.4524C31.5499 26.3546 31.5979 26.3796 31.6371 26.5391L31.6487 26.5915H31.8784V25.314H31.6492L31.6369 25.366ZM40.8173 24.2317H39.2574C39.3174 24.0694 39.9192 22.4711 40.0177 22.2113C40.1197 22.4709 40.7521 24.0681 40.8173 24.2317ZM42.2026 25.5329L42.1941 25.511C42.1941 25.5101 40.6392 21.6356 40.6392 21.6356C40.5908 21.5144 40.586 21.4955 40.586 21.4789C40.586 21.4387 40.586 21.4178 40.6951 21.3858L40.7412 21.371V21.1269H39.3481V21.3727L39.3984 21.3867C39.5036 21.4121 39.5036 21.4326 39.5036 21.463C39.5036 21.4896 39.4916 21.5229 39.4494 21.636L37.9149 25.6552C37.7573 26.049 37.7179 26.0702 37.5885 26.0941L37.5339 26.1039V26.3545H38.7849V26.1028L38.7303 26.0937C38.5981 26.0728 38.5981 26.0475 38.5981 26.0177C38.5981 25.9814 38.5981 25.9775 38.6452 25.8523C38.6452 25.8523 38.887 25.2087 38.953 25.0344H41.1319C41.1618 25.1108 41.4388 25.8004 41.4388 25.8004C41.484 25.9133 41.5047 25.9694 41.5047 26.0027C41.5047 26.0234 41.5047 26.0771 41.3748 26.0937L41.3167 26.1011L41.3171 26.3546H42.6528V26.1082L42.603 26.0952C42.3983 26.0432 42.3983 26.0432 42.2027 25.5327" fill="#3B4D62"/>
<path d="M58.1567 19.798C59.2456 21.445 57.5841 24.6693 54.4467 26.9982C51.3089 29.3269 47.8836 29.8793 46.7952 28.2306C45.7063 26.5837 47.3671 23.3598 50.5049 21.0317C53.643 18.7028 57.0681 18.1506 58.1567 19.798Z" fill="#3B4D62"/>
<path d="M55.1846 25.3139H54.9431L54.9297 25.366C54.8866 25.5228 54.8247 25.5511 54.7157 25.5511H51.8778C52.0461 25.3374 55.1772 21.3285 55.1772 21.3285V21.127H50.8923C50.7683 21.127 50.7176 21.0839 50.6781 20.9403L50.6686 20.9116C50.6141 20.9518 50.5595 20.9912 50.5047 21.0317C50.4765 21.0521 50.4495 21.0724 50.422 21.0946V22.1664H50.6638L50.6779 22.1164C50.7199 21.9584 50.7829 21.9291 50.8923 21.9291H53.5313C53.3621 22.1445 50.2878 26.0696 50.2878 26.0696V26.3545H54.7155C54.8443 26.3545 54.8903 26.3938 54.9296 26.5401L54.9429 26.5914H54.9682C55.0421 26.5309 55.1137 26.472 55.1846 26.4104V25.3139Z" fill="#3B4D62"/>
<path d="M66.2637 23.0743C66.1007 23.1762 65.9129 23.2094 65.4934 23.2094H63.6073V21.9289H65.4934C65.9319 21.9289 66.1072 21.9592 66.2623 22.0643C66.4129 22.1615 66.4989 22.3447 66.4989 22.5688C66.4989 22.7939 66.4129 22.9792 66.2637 23.0743ZM63.6073 24.0122H65.4857C66.2924 24.0122 66.6213 24.2352 66.6213 24.7822C66.6213 25.3214 66.2815 25.5512 65.4857 25.5512H63.6073V24.0122ZM66.7604 23.5941C67.1947 23.3761 67.3933 23.0419 67.3933 22.5314C67.3933 22.0878 67.2136 21.6846 66.9111 21.4526C66.604 21.2217 66.2096 21.1269 65.5495 21.1269H62.5187V21.3647L62.5683 21.3786C62.7175 21.4186 62.743 21.4676 62.743 21.5625V25.9342C62.743 26.0094 62.7291 26.066 62.5683 26.1108L62.5187 26.1228V26.3545H65.5939C66.2876 26.3545 66.6715 26.2566 67.0138 25.9973C67.3655 25.7301 67.5442 25.3386 67.5442 24.8353C67.5442 24.2289 67.279 23.8148 66.7604 23.5939M75.9926 25.6208C74.8648 25.6208 74.136 24.8843 74.136 23.7432C74.136 22.6185 74.8718 21.8608 75.9643 21.8608C76.5846 21.8608 77.0237 22.0362 77.3858 22.4281C77.6929 22.7686 77.8483 23.2119 77.8483 23.7432C77.8483 24.8664 77.1027 25.6208 75.9926 25.6208ZM77.81 21.6299V21.6293C77.3267 21.2354 76.727 21.0352 76.0276 21.0352C75.254 21.0352 74.6831 21.2187 74.1749 21.6291C73.5829 22.1102 73.214 22.9207 73.214 23.7432C73.214 24.5677 73.5735 25.3556 74.1749 25.8504C74.6547 26.2512 75.2503 26.4462 75.9926 26.4462C76.736 26.4462 77.3299 26.2512 77.8103 25.8504C78.4125 25.3475 78.7718 24.5594 78.7718 23.7432C78.7718 22.917 78.4125 22.126 77.8098 21.6301M89.5516 21.1269H88.0979V21.3727L88.1475 21.3862C88.2502 21.4132 88.2502 21.4282 88.2502 21.448C88.2502 21.4996 88.2052 21.586 88.1094 21.7192C88.1094 21.7198 87.2042 23.0584 86.9731 23.3972C86.8774 23.2573 85.8546 21.781 85.8546 21.781C85.7477 21.6275 85.7008 21.5296 85.7008 21.463C85.7008 21.4245 85.7008 21.4121 85.8159 21.3867L85.8675 21.3745V21.1269H84.3046V21.3764L84.3566 21.3867C84.5288 21.42 84.5314 21.4217 84.9088 21.9263C84.9078 21.9248 86.3629 24.0159 86.4928 24.201V25.8965C86.4928 25.9979 86.4665 26.0545 86.3187 26.096L86.27 26.1089V26.3545H87.6094V26.1091L87.5616 26.0961C87.4117 26.0545 87.385 25.9981 87.385 25.8965V24.201C87.9189 23.4427 88.4522 22.684 88.985 21.9248C89.339 21.4576 89.3926 21.4063 89.5585 21.3873L89.6169 21.3804V21.1269H89.5516ZM58.3969 31.2532C58.6979 31.2892 58.9563 31.193 59.1731 30.9651C59.3256 30.8089 59.3792 30.629 59.3354 30.4262C58.9871 30.5113 58.674 30.787 58.3969 31.2532ZM55.9415 33.4686C55.7283 33.5471 55.5001 33.6716 55.2567 33.8422C54.932 34.0704 54.6918 34.2499 54.5363 34.3814C54.2319 34.6342 54.0021 34.8918 53.8464 35.1556C53.7381 35.3366 53.672 35.4613 53.6486 35.5294C53.5909 35.7139 53.6401 35.8458 53.7956 35.9235C53.9106 35.9846 54.0847 35.9524 54.3183 35.828C54.5247 35.7178 54.785 35.5305 55.0994 35.2677C55.4881 34.9399 55.8286 34.6094 56.1191 34.2748C56.376 33.9723 56.5777 33.6801 56.7228 33.3994C56.4859 33.3421 56.2257 33.3654 55.9415 33.4686ZM56.9915 31.1521C57.1708 31.3192 57.3248 31.4086 57.453 31.4188C57.7409 31.4443 57.9859 31.3481 58.1886 31.1307C58.2261 31.0953 58.265 31.0526 58.3054 31.0024C58.3427 30.9565 58.4039 30.8729 58.488 30.7515C58.5354 30.6842 58.5748 30.6309 58.6051 30.5915C58.8487 30.2713 59.092 30.1255 59.3354 30.1544C59.5588 30.179 59.6467 30.3622 59.5991 30.704C59.5685 30.9282 59.4119 31.1112 59.1272 31.2532C59.0732 31.2818 58.9804 31.3266 58.8487 31.3871C58.6288 31.4902 58.4646 31.5759 58.3564 31.643C58.1396 31.7818 57.979 31.9452 57.8744 32.1345C57.8339 32.2089 57.7595 32.3173 57.6514 32.4598C57.5297 32.6269 57.4467 32.7571 57.4029 32.8493L57.3672 32.9242L57.3514 32.9883C57.3348 33.063 57.3651 33.1285 57.4432 33.1859L57.4889 33.2177C57.5703 33.2712 57.6294 33.3139 57.6665 33.3461C57.8253 33.4812 57.9405 33.6859 58.0112 33.9595C58.0756 34.2017 58.0991 34.4721 58.0824 34.7711C58.0655 35.1057 57.9354 35.3743 57.692 35.5764C57.5802 35.6695 57.4671 35.7126 57.3515 35.7052C57.6528 35.3064 57.8049 34.8638 57.8084 34.376C57.8116 34.0948 57.7458 33.8616 57.6106 33.6764C57.4113 33.3955 57.1864 33.373 56.9358 33.6074L56.8901 33.6555C56.8396 33.7088 56.7819 33.7767 56.7177 33.8581L56.6773 33.9118L56.6365 33.9653C56.6027 34.0113 56.5788 34.0434 56.5658 34.0615C56.1595 34.5912 55.7487 35.0379 55.333 35.4006C54.9811 35.7067 54.6429 35.9367 54.3183 36.0893C54.0918 36.1963 53.8631 36.2089 53.6331 36.1267C53.312 36.0129 53.2258 35.7818 53.3746 35.4332C53.6218 34.8599 54.0576 34.3651 54.6835 33.9492C54.8612 33.8309 55.0404 33.7152 55.221 33.602C55.3701 33.5095 55.5071 33.4312 55.632 33.3676C55.9939 33.1859 56.3224 33.0861 56.6161 33.0684C56.9071 33.0506 57.1336 32.9046 57.2961 32.6306C57.5217 32.3295 57.7317 32.0159 57.9252 31.691C57.7625 31.6519 57.6577 31.6345 57.6106 31.638C57.3234 31.6554 57.0964 31.6203 56.9305 31.5311C56.7107 31.4097 56.6249 31.2071 56.6722 30.9227C56.7566 30.9621 56.8635 31.0381 56.9915 31.1521Z" fill="#3B4D62"/>
<path d="M60.3737 32.0969C60.3808 32.3171 60.2978 32.3852 60.1252 32.2999C59.9831 32.2281 59.9494 32.1289 60.0236 32.0005C60.095 31.8867 60.198 31.8212 60.3335 31.8032C60.3604 31.9213 60.3737 32.0184 60.3737 32.0969ZM58.0355 34.0614C58.3262 33.9541 58.6559 33.8064 59.0247 33.6181C59.1293 33.5648 59.261 33.4399 59.42 33.2447C59.6163 33.006 59.7823 32.8744 59.9174 32.8492C59.9511 33.063 59.8512 33.3266 59.6177 33.6392C59.4253 33.8993 59.3324 34.1125 59.3391 34.2798C59.3659 34.2663 59.4014 34.2372 59.4457 34.1943C59.5168 34.1164 59.5688 34.0718 59.6027 34.0614V34.4458C59.5386 34.4668 59.4522 34.5185 59.3442 34.6001C59.2053 34.6932 59.0989 34.7498 59.0247 34.7711C58.8182 34.828 58.7233 34.7566 58.7405 34.5577L58.7454 34.4985C58.7523 34.4594 58.7641 34.4012 58.7809 34.3223C58.8043 34.2232 58.8165 34.1536 58.8165 34.1142C58.7284 34.1467 58.6068 34.1984 58.4514 34.2696C58.2653 34.3547 58.1267 34.4134 58.0355 34.4458V34.0614Z" fill="#3B4D62"/>
<path d="M59.5978 34.0614C59.6722 34.0328 59.7484 33.981 59.8263 33.906C59.8736 33.8599 59.9395 33.7835 60.0241 33.6764C60.1319 33.5417 60.2167 33.4492 60.2774 33.3994L60.3032 33.3727L60.3435 33.3402C60.5158 33.1766 60.631 33.0741 60.6884 33.0306C60.7459 32.9845 60.7832 32.9616 60.8002 32.9616H60.9019C60.9388 33.1285 60.9576 33.2193 60.9576 33.2336L60.9421 33.2822C60.9217 33.3281 60.888 33.3922 60.8407 33.4738L60.8002 33.5328C60.7696 33.5787 60.7513 33.6074 60.7443 33.6179C60.7223 33.6531 60.6986 33.6871 60.6732 33.7197C60.5482 33.8797 60.4858 33.9739 60.4858 34.0022C60.4834 34.0249 60.4853 34.0479 60.4914 34.0698C60.4975 34.0917 60.5077 34.1121 60.5213 34.1299L60.5568 34.1732L60.5874 34.2267C60.6917 34.1878 60.8324 34.1125 61.0083 34.0022L61.054 33.9758C61.0909 33.9508 61.1482 33.906 61.2258 33.8422C61.3074 33.778 61.3563 33.7408 61.3733 33.7297L61.4446 33.6819L61.5054 33.6338C61.5965 33.5591 61.6829 33.4717 61.7639 33.3729L61.8047 33.3193L61.8455 33.2656C61.9124 33.1805 61.9655 33.115 62.0028 33.0683C62.0803 32.9721 62.1853 32.8818 62.3168 32.796C62.3232 32.8104 62.3575 32.8104 62.4187 32.796L62.4287 32.8333C62.4593 32.9938 62.4811 33.1005 62.4946 33.1535C62.5082 33.1964 62.5184 33.2229 62.5251 33.2336C62.5791 33.3298 62.7365 33.3472 62.9967 33.2871V33.6181C62.7598 33.6716 62.5859 33.6716 62.4748 33.6181C62.2984 33.5365 62.1934 33.501 62.1598 33.5115C62.1188 33.5222 62.0682 33.5541 62.0073 33.6074C61.9532 33.6536 61.8825 33.7297 61.7945 33.8374C61.7063 33.9325 61.6542 33.9882 61.6373 34.0022C61.5358 34.084 61.3952 34.1769 61.216 34.2798C60.9761 34.4186 60.7846 34.5115 60.6426 34.5577C60.4228 34.6216 60.2659 34.6216 60.1712 34.5577C60.0936 34.5046 60.0509 34.4421 60.0445 34.3705V34.3279C60.04 34.2384 60.0297 34.1494 60.0136 34.0614C59.9937 34.0718 59.9207 34.1379 59.7957 34.2587C59.6705 34.3793 59.6043 34.4421 59.5978 34.4456V34.0614ZM68.4182 33.7819H68.4233V33.7717H68.4286V33.7656H68.4233V33.7609H68.4333V33.7554H68.4182V33.7819ZM69.2402 31.2252C69.1284 31.3251 68.9782 31.48 68.7886 31.6896C68.7582 31.722 68.7174 31.7644 68.6667 31.8179C68.4805 32.0173 68.3472 32.1681 68.2663 32.2718C68.1307 32.439 68.0296 32.59 67.9617 32.7251C67.8769 32.8924 67.8382 33.0417 67.8453 33.1738C67.9902 33.0776 68.1462 32.9481 68.3116 32.7839C68.3862 32.7131 68.4993 32.5952 68.6519 32.4316C68.7768 32.2999 68.873 32.2003 68.9405 32.1322C68.9847 32.0862 69.0577 32.0194 69.1591 31.9298C69.4059 31.7128 69.5749 31.542 69.6663 31.4172C69.8049 31.2252 69.8606 31.0403 69.8334 30.8621C69.6443 30.9228 69.4465 31.0435 69.2402 31.2252ZM68.4182 34.1662C68.3711 34.1843 68.2883 34.2217 68.1699 34.2787C67.9364 34.3891 67.7591 34.4421 67.6374 34.4384C67.4408 34.435 67.2836 34.2517 67.165 33.8888C67.1107 33.9352 67.0349 34.008 66.9368 34.1079C66.8898 34.1578 66.8504 34.1954 66.8203 34.2198C66.6814 34.3407 66.5175 34.396 66.3284 34.3849C66.3214 34.2324 66.3842 34.099 66.5163 33.985C66.5801 33.9243 66.7053 33.8444 66.8912 33.745C67.2127 33.567 67.4088 33.3959 67.4795 33.2323C67.706 32.6988 68.0243 32.2138 68.4182 31.8019C68.4689 31.7487 68.5452 31.6665 68.6465 31.5562C68.8459 31.3429 68.9986 31.1863 69.103 31.0866C69.3329 30.8695 69.558 30.7037 69.7776 30.5899C69.937 30.5085 70.0244 30.4711 70.0418 30.4778C70.109 30.5067 70.1462 30.5744 70.1536 30.6808C70.1566 30.745 70.1445 30.8449 70.1178 30.9796C70.1085 31.033 70.1001 31.0866 70.0926 31.1402C70.0752 31.2964 69.9876 31.4691 69.8286 31.6576C69.7305 31.7788 69.5545 31.9513 69.3007 32.1753C69.1521 32.3071 69.0506 32.4015 68.9968 32.4585C68.905 32.5547 68.7446 32.6951 68.5148 32.8796C68.2441 33.0968 68.0526 33.2626 67.9409 33.3764C67.7521 33.5724 67.6318 33.7624 67.5811 33.9475C67.7165 34.0048 67.857 34.0098 68.0025 33.9639C68.0428 33.9495 68.1069 33.9208 68.1949 33.8783C68.2895 33.8357 68.3641 33.8033 68.4182 33.7819V34.1662Z" fill="#3B4D62"/>
<path d="M70.7519 31.8179C70.7586 32.0386 70.6758 32.1065 70.5034 32.0207C70.361 31.9494 70.3276 31.8499 70.402 31.722C70.4732 31.6079 70.5759 31.542 70.711 31.5244C70.7386 31.6417 70.7519 31.7392 70.7519 31.8179ZM68.413 33.7819C68.704 33.6755 69.0338 33.5275 69.402 33.3391C69.5068 33.2856 69.6391 33.1611 69.7979 32.9653C69.9941 32.7272 70.1596 32.5952 70.2952 32.5701C70.3292 32.784 70.2291 33.0473 69.9963 33.3605C69.803 33.6196 69.7101 33.8337 69.7166 34.0012C69.7439 33.9873 69.7799 33.958 69.8232 33.9155C69.8943 33.8374 69.9468 33.7928 69.9806 33.7819V34.1662C69.9166 34.188 69.8304 34.2395 69.7217 34.3211C69.5833 34.4142 69.4766 34.4706 69.402 34.4921C69.1963 34.5489 69.1015 34.4778 69.1183 34.2787L69.1236 34.2199C69.1301 34.1805 69.1421 34.1222 69.1591 34.0439C69.1825 33.9445 69.1948 33.8746 69.1948 33.8355C69.1062 33.8674 68.9847 33.9188 68.8291 33.9906C68.643 34.0754 68.5044 34.1346 68.413 34.1664V33.7819Z" fill="#3B4D62"/>
<path d="M71.7614 33.8892C71.6738 34.0419 71.6175 34.1723 71.5943 34.2789C71.9496 34.3388 72.0911 34.2417 72.0201 33.9852C71.9967 33.8999 71.9422 33.8131 71.8578 33.7236C71.8374 33.7626 71.805 33.818 71.7614 33.8892ZM71.4825 33.6331C71.4315 33.5831 71.3826 33.5596 71.3351 33.5635C71.1188 33.5672 70.963 33.7093 70.8685 33.9908C70.8378 34.0796 70.8362 34.1564 70.8636 34.22C70.9753 34.4832 71.1204 34.478 71.2998 34.2038C71.3907 34.0578 71.4723 33.8805 71.5433 33.6703L71.4825 33.6331ZM70.7062 35.9766C70.6795 36.0543 70.6285 36.1824 70.5541 36.3604C70.4732 36.5528 70.4187 36.6999 70.3916 36.8037C70.3039 37.1198 70.2868 37.3588 70.341 37.5189C70.537 37.4477 70.7315 37.3159 70.9243 37.1237C71.1339 36.9175 71.3217 36.6629 71.4876 36.3604C71.5113 36.3215 71.5516 36.2521 71.6089 36.1524C71.6794 36.0312 71.7472 35.9082 71.812 35.7836C71.9105 35.6027 71.9828 35.4391 72.0305 35.2931C72.1115 35.0472 72.1406 34.8162 72.1165 34.5988C71.4403 34.7198 70.9698 35.1795 70.7062 35.9766ZM69.9753 33.7821C70.2868 33.6684 70.6132 33.5119 70.9551 33.3124C71.3743 33.0636 71.7969 32.7608 72.2236 32.4054C72.3041 32.3378 72.3887 32.2416 72.4768 32.1173C72.5278 32.0532 72.6034 31.9389 72.7046 31.7755C72.8197 31.594 72.9129 31.4609 72.9842 31.3753C73.1259 31.201 73.2731 31.0851 73.4249 31.0283C73.4594 31.2345 73.4003 31.4643 73.2478 31.7167C73.1569 31.8695 72.9924 32.0816 72.7559 32.3523C72.624 32.5047 72.5326 32.6154 72.4821 32.6827C72.4612 32.7079 72.4283 32.7521 72.3801 32.8165C72.2988 32.9159 72.2397 32.9923 72.203 33.0456C72.142 33.1344 72.0982 33.217 72.0711 33.2917C72.027 33.4229 72.0257 33.5495 72.0658 33.6703L72.0962 33.7554L72.1268 33.8202C72.1945 33.9549 72.3024 33.9875 72.4513 33.9157L72.502 33.8892C72.6069 33.8392 72.6885 33.8037 72.7459 33.7821V34.1664C72.475 34.2626 72.3175 34.4443 72.274 34.7115C72.2065 35.1419 72.1198 35.4905 72.0152 35.7573C71.8156 36.2594 71.5891 36.6431 71.3351 36.9101C71.2913 36.9527 71.2238 37.0398 71.1325 37.1716C70.9398 37.4462 70.7622 37.6166 70.5997 37.6841C70.1765 37.8549 69.9979 37.6841 70.0617 37.1716C70.0956 36.9081 70.1888 36.5828 70.341 36.1948C70.5342 35.8204 70.7086 35.4357 70.8636 35.0422C70.9213 34.8923 70.8685 34.7452 70.7062 34.5988C70.6586 34.5595 70.6188 34.5106 70.5893 34.455C70.5559 34.4014 70.5272 34.3307 70.5035 34.2417C70.4936 34.2027 70.4811 34.1433 70.4678 34.0652C70.4608 34.0257 70.4523 33.9865 70.4424 33.9477C70.3746 33.9551 70.3021 33.9817 70.2244 34.0272L70.1735 34.0546C70.0856 34.112 70.0195 34.149 69.9753 34.1664V33.7821Z" fill="#3B4D62"/>
<path d="M74.2369 32.4954C73.8787 32.7518 73.6754 33.1079 73.6285 33.5632C74.0032 33.371 74.3143 33.113 74.5616 32.7894C74.6835 32.629 74.7557 32.483 74.7797 32.352C74.5969 32.3194 74.416 32.3675 74.2368 32.4954H74.2369ZM72.7404 33.7818C73.0042 33.6863 73.1783 33.5384 73.2627 33.339C73.4725 32.8442 73.7512 32.4954 74.1001 32.2928C74.2695 32.193 74.4095 32.1253 74.521 32.0905C74.8488 31.9758 75.0046 32.0813 74.9877 32.4051C74.974 32.6541 74.8373 32.9178 74.5764 33.1946C74.448 33.3303 74.2874 33.4707 74.0945 33.6167C73.9424 33.7319 73.787 33.8421 73.6285 33.9474C73.7027 33.9872 73.7852 34.0079 73.8766 34.0114C73.9545 34.0188 74.0424 34.0136 74.1408 33.9957C74.2048 33.9814 74.2758 33.9616 74.3534 33.9368C74.4144 33.9154 74.5039 33.8837 74.6228 33.8408C74.6937 33.8127 74.7459 33.7927 74.7797 33.7818V34.1661C74.7533 34.1768 74.7172 34.1894 74.6733 34.2035C74.5889 34.2343 74.5043 34.2646 74.4195 34.2941C74.3251 34.3304 74.2389 34.3585 74.161 34.3798C74.066 34.405 73.9746 34.4244 73.887 34.4383C73.6399 34.4816 73.4134 34.4281 73.2074 34.2786C73.0374 34.1502 72.8825 34.1126 72.7404 34.1661V33.7818ZM78.8941 34.222C78.5255 34.4462 78.2077 34.5891 77.9403 34.6496C77.4602 34.7529 77.1858 34.5922 77.1185 34.1687C77.0879 33.9698 77.1118 33.7457 77.189 33.4961C77.2505 33.3038 77.3485 33.089 77.4837 32.8503C77.8286 32.2349 78.2292 31.7937 78.6861 31.5273C78.987 31.353 79.1833 31.4323 79.2745 31.7669C79.3118 31.9023 79.3252 32.0609 79.3148 32.2421C79.2949 32.5947 79.1208 32.7602 78.7921 32.7383C78.7921 32.6749 78.7958 32.5964 78.8025 32.5039C78.8201 32.2902 78.8166 32.1301 78.7921 32.0232C78.6907 32.0411 78.5846 32.0909 78.4728 32.173C77.9383 32.5502 77.6084 33.0692 77.4837 33.7316C77.4494 33.9059 77.4332 34.016 77.4332 34.0623C77.426 34.276 77.5309 34.3667 77.7473 34.3345C77.9403 34.3064 78.1555 34.2347 78.3913 34.1213C78.5275 34.0538 78.7642 33.9468 78.964 33.826L78.8941 34.222ZM81.3395 33.3419C81.4585 33.3162 81.5769 33.2875 81.6946 33.2561C81.9074 33.1995 82.0681 33.1602 82.1763 33.1393C82.379 33.0964 82.5537 33.0727 82.6989 33.069L82.7696 33.0749C82.9054 33.0931 82.9796 33.18 82.9931 33.3364C82.9996 33.4078 82.9931 33.527 82.9733 33.6941C82.9627 33.7616 82.9573 33.8099 82.9573 33.8384C83.083 33.7847 83.2604 33.6732 83.4901 33.5018C83.7135 33.3345 83.8841 33.2278 84.0026 33.1817C84.189 33.1069 84.3038 33.1708 84.3478 33.3738C84.3543 33.4089 84.3608 33.4487 84.3682 33.4914C84.3707 33.559 84.3707 33.6624 84.3682 33.8005V33.95C84.4558 33.9076 84.5778 33.8201 84.7326 33.6883C84.963 33.4961 85.1388 33.3812 85.2609 33.3419C85.4637 33.2809 85.5685 33.3667 85.5753 33.5978C85.5788 33.6732 85.5685 33.7953 85.5453 33.9661C85.5277 34.0945 85.5194 34.1798 85.5194 34.222L85.5803 34.2068L85.636 34.1746C85.6865 34.1383 85.7171 34.1193 85.7275 34.1158V34.5001C85.582 34.5538 85.4721 34.5852 85.3975 34.5963C85.2899 34.6098 85.2083 34.5963 85.1541 34.5537C85.0901 34.5071 85.0562 34.4251 85.0528 34.308C85.0493 34.247 85.0562 34.1637 85.0732 34.0567C85.0961 33.9148 85.1067 33.8241 85.104 33.7847C84.9445 33.8421 84.7431 34.0073 84.5001 34.281C84.3339 34.4701 84.2092 34.5961 84.1245 34.66C83.962 34.7882 83.7993 34.8433 83.6375 34.8261C83.6375 34.701 83.6642 34.5871 83.7186 34.4844L83.7439 34.4414C83.7907 34.3487 83.8251 34.276 83.8457 34.222C83.9125 34.0584 83.9125 33.8948 83.8457 33.7316C83.7068 33.8136 83.5019 33.9431 83.2314 34.1213C82.8899 34.3421 82.6247 34.5056 82.4351 34.6117L82.3841 34.6442L82.3388 34.6814C82.2841 34.7351 82.2473 34.7651 82.2273 34.7721C81.9262 34.8933 81.8217 34.8024 81.9128 34.5001C81.936 34.4146 81.9872 34.3204 82.0646 34.217C82.1089 34.1565 82.1843 34.0641 82.2932 33.9394C82.4142 33.7969 82.4977 33.6905 82.5417 33.6197C82.2273 33.5446 81.8263 33.5623 81.3395 33.6732V33.3419Z" fill="#3B4D62"/>
<path d="M87.5079 34.222C87.4207 34.3756 87.3644 34.5057 87.3412 34.6119C87.6957 34.673 87.8378 34.5749 87.7669 34.3184C87.7428 34.2333 87.6889 34.146 87.6043 34.0568C87.584 34.0964 87.552 34.1512 87.5079 34.222ZM87.2295 33.9659C87.1781 33.9167 87.1294 33.8934 87.0818 33.8971C86.8655 33.9002 86.7095 34.0429 86.6154 34.3242C86.585 34.413 86.5829 34.489 86.6098 34.5536C86.7216 34.8167 86.867 34.8112 87.0466 34.5373C87.1379 34.3915 87.2189 34.2141 87.29 34.0035L87.2295 33.9659ZM86.4529 36.3096C86.4262 36.3879 86.3753 36.5159 86.3002 36.6938C86.2192 36.8858 86.1659 37.0335 86.1381 37.1364C86.0503 37.4535 86.0335 37.6922 86.0876 37.8523C86.2839 37.781 86.4786 37.6493 86.671 37.457C86.8806 37.2511 87.0684 36.9963 87.2342 36.6938C87.258 36.6549 87.2988 36.5851 87.3559 36.4858C87.4472 36.3259 87.5147 36.2027 87.5591 36.1176C87.6568 35.936 87.7297 35.7723 87.7771 35.6263C87.858 35.3805 87.8869 35.1496 87.8633 34.9324C87.1873 35.0534 86.717 35.5123 86.4529 36.3096ZM85.7225 34.1156C86.0336 34.0016 86.36 33.8455 86.701 33.6458C87.1212 33.3967 87.5434 33.0944 87.9701 32.7382C88.0511 32.671 88.1357 32.5746 88.2236 32.4499C88.2743 32.3859 88.3506 32.2719 88.4521 32.1087C88.5664 31.9274 88.6598 31.7936 88.7308 31.7083C88.8728 31.534 89.02 31.4185 89.1717 31.3613C89.2062 31.5676 89.1471 31.7971 88.9946 32.0497C88.9035 32.2029 88.7391 32.4146 88.5027 32.6849C88.3708 32.8381 88.2794 32.9482 88.2289 33.0161C88.2082 33.0411 88.1749 33.0853 88.1269 33.1497C88.0457 33.2491 87.9869 33.3255 87.9497 33.3788C87.8888 33.4676 87.8445 33.5494 87.8178 33.6243C87.7734 33.7561 87.7724 33.8827 87.8132 34.0033L87.8434 34.0886L87.8739 34.153C87.9412 34.2881 88.0492 34.3203 88.1981 34.2492L88.2488 34.2218C88.3289 34.1834 88.4102 34.148 88.4927 34.1156V34.4999C88.2219 34.5962 88.0645 34.7777 88.0207 35.0441C87.9533 35.4745 87.8668 35.8235 87.762 36.0909C87.5621 36.5924 87.3359 36.9765 87.082 37.2435C87.0382 37.2863 86.9708 37.3734 86.8794 37.5052C86.6866 37.7794 86.5092 37.9502 86.3465 38.0175C85.9239 38.1881 85.7447 38.0175 85.8085 37.505C85.8428 37.2415 85.9357 36.916 86.0878 36.528C86.2809 36.1536 86.4552 35.7688 86.6101 35.3752C86.6681 35.2255 86.6156 35.0776 86.4531 34.9322C86.4056 34.8927 86.366 34.8437 86.3366 34.7881C86.3029 34.7348 86.274 34.6639 86.2503 34.5745C86.2399 34.5357 86.2278 34.4768 86.2146 34.3989C86.2076 34.3592 86.1991 34.3198 86.1891 34.2809C86.1214 34.2883 86.0489 34.3149 85.9708 34.3604L85.9202 34.3878C85.8326 34.4452 85.7665 34.4822 85.7225 34.4999V34.1156Z" fill="#3B4D62"/>
<path d="M90.3696 33.5073C90.4534 33.5573 90.5331 33.5917 90.6078 33.6086C90.9225 33.6733 91.0338 33.4933 90.9429 33.0694C90.675 33.1693 90.4842 33.3155 90.3696 33.5073ZM90.3696 34.073C90.1831 33.9844 90.06 33.9611 89.9995 34.0036C89.9046 34.0715 89.8532 34.1814 89.8469 34.3348C89.8469 34.3243 89.8638 34.397 89.8975 34.5537C89.9856 34.5038 90.1072 34.4131 90.2626 34.2812C90.3536 34.2072 90.4232 34.1513 90.471 34.1159C90.4362 34.1045 90.4022 34.0902 90.3696 34.073ZM88.4871 34.1159C88.5452 34.0947 88.6308 34.0697 88.7462 34.0412C88.8879 34.0057 88.9927 33.9753 89.0603 33.9501C89.0909 33.9398 89.1434 33.9061 89.218 33.8489C89.2585 33.8167 89.2924 33.7955 89.3188 33.7849C89.4427 33.7304 89.5665 33.6754 89.69 33.6199C89.7655 33.5764 89.8325 33.5184 89.8877 33.4489C89.9109 33.4167 89.9468 33.3636 89.9939 33.2886C90.0581 33.1887 90.1121 33.1158 90.1562 33.0694C90.4336 32.7777 90.6785 32.6678 90.892 32.7385C91.0953 32.8062 91.1995 32.9717 91.2065 33.235V33.4167C91.2031 33.516 91.2031 33.5841 91.2065 33.6199C91.2538 33.6013 91.3233 33.5751 91.4144 33.5394C91.6676 33.4396 91.8589 33.3739 91.9877 33.3421V33.6733C91.7172 33.737 91.497 33.8029 91.3282 33.8702C91.0406 33.9912 90.824 34.1461 90.6785 34.3347C90.6279 34.4059 90.5588 34.4794 90.471 34.5537C90.197 34.7954 89.9531 34.904 89.7407 34.8794C89.5474 34.8579 89.4429 34.7495 89.4259 34.5537C89.4188 34.486 89.4241 34.4039 89.4405 34.3082L89.4567 34.2547C89.4693 34.18 89.4767 34.1337 89.4767 34.1159C89.3383 34.1585 89.1434 34.2314 88.893 34.3347C88.7101 34.4131 88.5756 34.4683 88.4871 34.5003V34.1159Z" fill="#3B4D62"/>
<path d="M91.9826 33.3419C92.1479 33.3062 92.3747 33.2154 92.6621 33.0692C92.7193 33.0374 92.8026 32.9717 92.9106 32.8723C93.026 32.7654 93.1341 32.703 93.2354 32.6851C93.2595 32.799 93.2407 32.9484 93.18 33.1334C93.1397 33.2615 93.1222 33.3688 93.1294 33.4535C93.2678 33.3508 93.3893 33.2957 93.4941 33.2885C93.5147 33.4696 93.4301 33.6706 93.2409 33.8917C93.1053 34.0447 93.0158 34.1746 92.9716 34.281C93.0734 34.2991 93.18 34.2903 93.291 34.2546C93.3318 34.2436 93.3979 34.219 93.4892 34.1798C93.5606 34.1511 93.6141 34.1298 93.6517 34.1158V34.5001C93.6214 34.5108 93.5717 34.5304 93.5043 34.5589C93.3045 34.6411 93.1559 34.6874 93.0581 34.6972C92.8884 34.7153 92.7571 34.6676 92.6621 34.5536C92.5707 34.4463 92.5474 34.3223 92.5911 34.1798L92.6113 34.1263C92.6352 34.0658 92.6742 33.9983 92.7282 33.9239C92.752 33.8878 92.7859 33.8434 92.829 33.7901L92.8652 33.7474C92.8884 33.7154 92.9076 33.6906 92.9208 33.6732C92.7819 33.5943 92.6299 33.5621 92.4646 33.5768C92.3969 33.5842 92.2363 33.6156 91.9826 33.673V33.3419Z" fill="#3B4D62"/>
<path d="M93.6464 34.1162C94.242 33.8991 94.6762 33.4399 94.9502 32.7387C94.8382 32.7105 94.7211 32.7124 94.6099 32.7443L94.5698 32.7552C94.4754 32.78 94.3938 32.7922 94.3258 32.7922C94.0593 32.8028 93.9355 32.7301 93.9556 32.5735C93.9693 32.4808 94.0387 32.4242 94.1641 32.4029C94.242 32.3881 94.3646 32.3881 94.5349 32.4029C94.6697 32.4097 94.7561 32.4118 94.793 32.4081C95.0769 32.3763 95.3035 32.2482 95.4725 32.0236C95.4991 31.9917 95.5404 31.9366 95.5946 31.858C95.6961 31.7162 95.7775 31.6161 95.8382 31.5591C95.963 31.4385 96.1034 31.392 96.2594 31.4209C96.2455 31.5454 96.1927 31.684 96.1018 31.8369C96.0174 31.976 95.965 32.0933 95.9446 32.189C96.1034 32.2069 96.2917 32.1964 96.5073 32.1572C96.6686 32.1228 96.8292 32.0855 96.9892 32.0452C97.2704 31.9734 97.4798 31.9294 97.6186 31.9118C97.7873 31.8942 98.0477 31.8567 98.3996 31.7995C98.6771 31.7569 98.8869 31.7247 99.029 31.7033C99.3672 31.6607 99.6644 31.6394 99.9217 31.6394C99.7801 31.7429 99.5888 31.8226 99.3486 31.8796C99.223 31.9081 99.0253 31.9401 98.7552 31.9758C98.638 31.9879 98.5211 32.0038 98.4049 32.0236C97.8477 32.122 97.2897 32.2147 96.7308 32.3017C96.4771 32.337 96.3079 32.3653 96.2231 32.3864C96.1394 32.4046 96.0612 32.4262 95.9906 32.4505C95.7979 32.5219 95.66 32.6183 95.5795 32.7387C95.539 32.7959 95.4778 32.8794 95.3969 32.9897C95.184 33.2641 95.0536 33.4739 95.0062 33.6201C94.8773 33.997 94.9636 34.2174 95.2647 34.2814C95.4609 34.3208 95.6755 34.3105 95.9092 34.2496C95.9931 34.2248 96.1273 34.1802 96.31 34.1164V34.5005C96.0255 34.6041 95.7803 34.6622 95.5742 34.6767C95.2088 34.6976 94.9151 34.5841 94.6915 34.3349C94.6745 34.3173 94.6507 34.2814 94.6203 34.2279C94.5595 34.1178 94.4951 34.061 94.4272 34.0571C94.3869 34.0571 94.3379 34.0771 94.2807 34.1164C94.2297 34.1515 94.1604 34.212 94.0727 34.2973C93.984 34.3793 93.9288 34.4291 93.9049 34.4467C93.8741 34.4663 93.8391 34.4776 93.8031 34.4796H93.7533C93.7055 34.4829 93.6701 34.4894 93.6464 34.5005V34.1162Z" fill="#3B4D62"/>
<path d="M98.1312 33.342C97.9272 33.413 97.7542 33.5056 97.6082 33.6196C97.2662 33.8897 97.0404 34.146 96.9287 34.388C97.0771 34.4235 97.1993 34.4235 97.2941 34.388C97.3413 34.3736 97.3949 34.3455 97.4561 34.3029C97.4939 34.2772 97.5476 34.2387 97.6186 34.185C97.7399 34.0888 97.8252 34.0285 97.8724 34.0037C97.9733 33.9476 98.0642 33.8735 98.1411 33.7848L98.1766 33.7422C98.2614 33.6423 98.334 33.5642 98.395 33.5072L98.4457 33.4536H98.4965L98.5521 33.4005V33.2883C98.4099 33.2807 98.2676 33.2988 98.1312 33.342ZM96.3046 34.1156C96.3622 34.0944 96.4312 34.0557 96.5122 33.9981C96.5803 33.9521 96.692 33.8631 96.8474 33.7315C96.986 33.6179 97.0827 33.5424 97.1362 33.507C97.1833 33.4824 97.2681 33.4249 97.39 33.3363C97.5961 33.1836 97.7384 33.0946 97.8161 33.0691C97.8636 33.0552 97.9364 33.0411 98.0343 33.0269C98.21 33.005 98.3305 32.9643 98.3949 32.904C98.4184 32.8827 98.4501 32.8755 98.4909 32.8827C98.6905 32.9327 98.8159 33.0317 98.8671 33.1816C98.8797 33.2204 98.8765 33.2743 98.8565 33.3418C98.8358 33.4164 98.7904 33.5215 98.7197 33.6569C98.682 33.7278 98.6602 33.7704 98.6536 33.7846C98.6398 33.8199 98.5741 33.9395 98.4559 34.1417C98.3875 34.2566 98.3504 34.3203 98.3444 34.3344C98.4799 34.3772 98.6243 34.3772 98.7598 34.3344C98.8278 34.3131 98.9325 34.2687 99.0742 34.2009C99.1621 34.1621 99.2316 34.1334 99.2821 34.1158V34.5C99.2518 34.5107 99.1613 34.5536 99.0088 34.6276C98.9036 34.6813 98.8379 34.7115 98.8102 34.7187C98.7638 34.7384 98.7166 34.7563 98.6689 34.7722C98.5807 34.811 98.5092 34.8358 98.4561 34.8469C98.3305 34.8756 98.222 34.8502 98.1312 34.7722C98.114 34.7579 98.094 34.7296 98.07 34.687C98.0313 34.6049 97.9958 34.5211 97.9638 34.4358C97.953 34.4008 97.9394 34.3669 97.923 34.3344C97.7994 34.4499 97.6588 34.5436 97.5068 34.6117C97.2465 34.7187 97.0689 34.7757 96.9739 34.7831C96.8693 34.7934 96.7852 34.772 96.7203 34.7187C96.6913 34.6961 96.6673 34.6672 96.6498 34.634C96.6324 34.6008 96.6218 34.5641 96.619 34.5262V34.4143C96.6223 34.3255 96.6211 34.262 96.6137 34.2219C96.6072 34.2257 96.5548 34.2722 96.457 34.3606C96.3589 34.4535 96.3079 34.5 96.3046 34.5V34.1156ZM107.754 34.836C107.609 34.9435 107.511 34.9039 107.46 34.7189L107.44 34.6337L107.435 34.5644C107.435 34.4611 107.492 34.4182 107.608 34.4359C107.652 34.443 107.724 34.4661 107.826 34.5057C107.899 34.5305 107.952 34.5464 107.983 34.5538C107.931 34.6673 107.852 34.7646 107.754 34.836ZM80.5591 33.2928C80.6442 33.3427 80.7231 33.3764 80.7982 33.394C81.1121 33.4582 81.224 33.2785 81.1324 32.8548C80.8659 32.9543 80.6739 33.1005 80.5591 33.2928ZM80.5591 33.8588C80.3734 33.7694 80.2497 33.7465 80.1887 33.789C80.0943 33.857 80.0438 33.9669 80.0366 34.1199C80.0366 34.1095 80.054 34.1823 80.087 34.3386C80.1753 34.289 80.2967 34.1984 80.4528 34.0666C80.5443 33.9918 80.6132 33.9369 80.6604 33.9012C80.6257 33.8895 80.5919 33.8753 80.5591 33.8588ZM78.6487 34.0174C78.7872 33.9656 78.8203 33.8962 78.9353 33.8355C79.0655 33.767 79.177 33.7346 79.2317 33.7148C79.2888 33.6945 79.3329 33.691 79.4075 33.6344C79.4483 33.6027 79.4824 33.5809 79.509 33.5701C79.7019 33.485 79.825 33.4295 79.8792 33.4051C79.9502 33.3653 80.0163 33.3089 80.0774 33.2336C80.1011 33.2021 80.1363 33.1488 80.1841 33.0741C80.2476 32.9745 80.3023 32.9012 80.3463 32.8548C80.6232 32.5635 80.8693 32.4529 81.0814 32.5241C81.2845 32.5917 81.3895 32.7573 81.3962 33.0206V33.2023C81.3926 33.3015 81.3926 33.3692 81.3962 33.4051C81.4435 33.3873 81.5129 33.3607 81.6044 33.3246C81.8583 33.2249 82.0491 33.1592 82.1773 33.1272V33.4584C81.9069 33.5222 81.6874 33.5879 81.518 33.6558C81.2303 33.7766 81.0142 33.9315 80.8691 34.1199C80.8183 34.1909 80.7486 34.2642 80.6604 34.3386C80.3871 34.5808 80.1435 34.6896 79.9304 34.6643C79.7374 34.6426 79.6326 34.5348 79.6156 34.3386C79.6085 34.2714 79.6136 34.1895 79.6309 34.0934L79.6456 34.04C79.6595 33.9652 79.666 33.9189 79.666 33.9012C79.5273 33.9437 79.333 34.0174 79.0825 34.1199C78.9005 34.1984 78.7843 34.3064 78.696 34.3386L78.6487 34.0174ZM64.0064 32.387C63.6604 32.5578 63.4373 32.8379 63.3363 33.2278C63.688 33.115 63.9925 32.9356 64.2503 32.6903C64.3769 32.5682 64.4594 32.4523 64.4968 32.3411C64.3424 32.2864 64.1787 32.3021 64.0064 32.387ZM62.5349 33.2893C62.7773 33.2434 62.9477 33.1407 63.0477 32.9799C63.2953 32.5793 63.5836 32.3169 63.9135 32.1909C64.0735 32.1289 64.2049 32.0906 64.3066 32.0761C64.6064 32.0243 64.7281 32.1378 64.6713 32.4172C64.6266 32.6327 64.4733 32.8418 64.2098 33.045C64.08 33.144 63.9218 33.243 63.7354 33.342C63.6133 33.4071 63.3472 33.5159 63.1685 33.5966C63.2283 33.6418 63.3064 33.688 63.3854 33.7039C63.4522 33.7219 63.6372 33.6795 63.7252 33.6782C63.7827 33.6754 63.8472 33.6686 63.9184 33.6584C63.974 33.6486 64.0561 33.6332 64.1648 33.6136C64.2306 33.5992 64.2786 33.5896 64.3088 33.5853L64.2589 33.9202C64.2341 33.925 64.2012 33.9308 64.1613 33.9373L63.9288 33.9795C63.841 33.9959 63.763 34.0081 63.6931 34.0155C63.6066 34.0237 63.5245 34.0272 63.4459 34.0266C63.2257 34.0285 63.0354 33.9491 62.8759 33.789C62.7452 33.6521 62.6151 33.5973 62.4846 33.6234L62.5349 33.2893Z" fill="#3B4D62"/>
<path d="M101.111 33.4978C101.23 33.587 101.34 33.642 101.441 33.6631C101.681 33.7204 101.808 33.615 101.821 33.3485C101.825 33.2627 101.704 33.1687 101.684 33.0619C101.383 33.0971 101.267 33.2414 101.111 33.4978ZM101.162 34.0587C101.084 34.0228 101.03 34.0015 101 33.9941C100.881 33.9512 100.78 33.9714 100.695 34.0533C100.567 34.1742 100.479 34.3753 100.432 34.6562C100.786 34.5922 101.066 34.409 101.269 34.1059C101.233 34.0916 101.197 34.0758 101.162 34.0587ZM98.8681 34.3283C99.6131 33.9264 100.359 33.5798 100.853 33.06C100.933 32.9747 101.062 32.8502 101.238 32.6863C101.428 32.5086 101.561 32.3773 101.639 32.2916C101.67 32.2564 101.71 32.2079 101.761 32.1472C101.872 32.0124 101.954 31.9197 102.004 31.8701C102.153 31.7276 102.31 31.6471 102.476 31.6299L102.486 31.6991C102.503 31.8381 102.474 31.9696 102.4 32.0943C102.373 32.1439 102.315 32.2276 102.228 32.3451C102.177 32.4124 102.136 32.4677 102.106 32.5105C102.021 32.6352 101.875 32.7133 102.01 32.8683L102.014 32.9109C102.041 33.0393 102.055 33.1441 102.055 33.2253C102.055 33.357 102.072 33.5036 102.106 33.6631C102.173 33.6525 102.244 33.6383 102.319 33.6205C102.366 33.6098 102.436 33.5928 102.527 33.5672C102.612 33.5422 102.699 33.5191 102.785 33.498V33.8289C102.481 33.899 102.184 33.9991 101.898 34.1277C101.722 34.213 101.583 34.2965 101.482 34.3788C101.235 34.5851 101.056 34.7241 100.944 34.7951C100.744 34.9126 100.557 34.9746 100.381 34.9824C100.151 34.9887 100.049 34.8664 100.076 34.6136C100.086 34.5355 100.113 34.4162 100.158 34.2558C100.195 34.1277 100.217 34.0404 100.223 33.9941C100.119 34.0197 99.9968 34.0694 99.8582 34.1434C99.7738 34.186 99.6472 34.2578 99.4778 34.3575C99.2174 34.5135 99.0313 34.6136 98.9198 34.6562L98.8681 34.3283Z" fill="#3B4D62"/>
<path d="M102.78 33.4977C102.834 33.4875 102.905 33.4427 102.993 33.3645C103.081 33.2858 103.149 33.2399 103.196 33.2251C103.423 33.1578 103.581 33.0852 103.668 33.0068L103.709 32.9639C103.746 32.9252 103.8 32.8551 103.871 32.7559C103.898 32.717 103.917 32.6898 103.927 32.6759L104.018 32.5636C104.089 32.4711 104.145 32.4015 104.185 32.3556C104.28 32.2454 104.368 32.1489 104.449 32.0677C104.49 32.0318 104.539 31.9817 104.596 31.918C104.674 31.8292 104.73 31.7702 104.764 31.7417C104.96 31.5779 105.134 31.4678 105.286 31.4106C105.31 31.6242 105.21 31.8588 104.987 32.1156C104.855 32.2687 104.764 32.4006 104.713 32.5103C104.605 32.7453 104.448 32.9661 104.241 33.1722C104.194 33.2181 104.124 33.2755 104.033 33.3428C103.912 33.439 103.823 33.528 103.77 33.6096C103.736 33.6662 103.7 33.7215 103.663 33.7754C103.565 33.9172 103.497 34.0278 103.46 34.1057C103.375 34.2663 103.34 34.4125 103.354 34.5439C103.421 34.5402 103.509 34.4854 103.617 34.3787C103.678 34.3219 103.729 34.2861 103.77 34.2715V34.656C103.729 34.6703 103.661 34.706 103.567 34.7622C103.407 34.8586 103.293 34.914 103.221 34.9284C103.12 34.953 103.042 34.9351 102.988 34.8747C102.887 34.7541 102.877 34.5739 102.958 34.3357C103.035 34.1081 103.185 33.8482 103.404 33.5567C103.333 33.553 103.214 33.6006 103.049 33.7005C102.934 33.7719 102.845 33.8145 102.78 33.8287V33.4977Z" fill="#3B4D62"/>
<path d="M105.454 35.2434L105.236 35.4037L105.185 35.4414C105.12 35.4905 105.082 35.521 105.068 35.5321C105.028 35.5636 104.963 35.6189 104.876 35.6971C104.814 35.7504 104.711 35.8467 104.566 35.9856C104.444 36.0957 104.368 36.1653 104.337 36.1938C104.317 36.2116 104.277 36.2434 104.216 36.2896C103.986 36.4817 103.818 36.6296 103.714 36.7323C103.585 36.8536 103.499 36.9482 103.455 37.0157C103.35 37.1789 103.298 37.2716 103.298 37.2929C103.291 37.4498 103.363 37.5581 103.516 37.619C103.695 37.6933 103.881 37.6952 104.074 37.6241C104.273 37.549 104.466 37.4197 104.652 37.2344C104.879 37.0098 105.036 36.809 105.124 36.6312C105.148 36.5777 105.182 36.5089 105.226 36.4232C105.259 36.3592 105.283 36.3126 105.296 36.2845C105.39 36.0947 105.471 35.8984 105.54 35.6971C105.604 35.5053 105.621 35.3213 105.59 35.1474C105.557 35.1689 105.511 35.2005 105.454 35.2434ZM103.764 34.272C103.856 34.2365 103.947 34.1795 104.038 34.1008C104.082 34.0658 104.146 34.0033 104.232 33.9145C104.319 33.829 104.39 33.7652 104.444 33.7224C104.471 33.6971 104.514 33.6551 104.571 33.5933C104.612 33.5518 104.664 33.4945 104.729 33.4236C104.84 33.3028 104.901 33.2367 104.911 33.2254L104.941 33.2789C104.989 33.3572 105.014 33.413 105.017 33.4445C105.021 33.4843 105.005 33.537 104.972 33.6044C104.948 33.658 104.901 33.742 104.83 33.8556C104.789 33.9271 104.764 33.9731 104.754 33.9944C104.686 34.1722 104.652 34.2651 104.652 34.272C104.649 34.4035 104.701 34.477 104.809 34.4911C104.921 34.5085 105.031 34.4805 105.139 34.406C105.2 34.3628 105.283 34.2899 105.388 34.1861C105.479 34.0977 105.547 34.0335 105.59 33.9942C105.831 33.7953 105.988 33.649 106.062 33.557L106.113 33.4982V33.4445L106.169 33.3914C106.294 33.2417 106.364 33.169 106.377 33.1725L106.428 33.2254H106.484C106.484 33.2757 106.477 33.3466 106.463 33.4391C106.45 33.5283 106.365 33.683 106.321 33.8934C106.298 33.9996 106.195 34.2181 106.328 34.2616L106.428 34.1332L106.602 33.8395L106.614 34.148C106.547 34.1906 106.353 34.477 106.296 34.544C106.257 34.5973 106.219 34.6525 106.184 34.7094C106.154 34.7671 106.123 34.8306 106.093 34.9019C106.076 34.9407 106.059 34.9836 106.042 35.0299C106.007 35.1171 105.977 35.2062 105.951 35.2969C105.941 35.3395 105.924 35.4002 105.9 35.4784C105.88 35.5526 105.864 35.608 105.855 35.6435C105.834 35.711 105.802 35.7985 105.758 35.9055C105.724 35.9908 105.665 36.1327 105.581 36.3326C105.529 36.4488 105.48 36.5661 105.433 36.6845C105.369 36.8629 105.213 37.0827 104.967 37.3466C104.578 37.7524 104.16 37.9357 103.714 37.8961C103.474 37.8752 103.284 37.7825 103.146 37.619C102.993 37.4441 102.973 37.2628 103.085 37.0748C103.271 36.765 103.548 36.4715 103.917 36.194C104.135 35.9993 104.361 35.8156 104.596 35.6435C104.657 35.5974 104.743 35.5354 104.855 35.457C105.048 35.3213 105.187 35.2205 105.271 35.1529C105.44 35.0175 105.582 34.8895 105.698 34.7686C105.825 34.6224 105.878 34.4376 105.855 34.2131C105.79 34.252 105.688 34.3345 105.545 34.4592C105.315 34.6617 105.142 34.7918 105.028 34.8486C104.845 34.937 104.684 34.9459 104.546 34.8752C104.394 34.7934 104.315 34.7094 104.313 34.6241L104.307 34.5764C104.307 34.4557 104.301 34.354 104.287 34.2718C104.263 34.2757 104.214 34.3057 104.14 34.3628C104.092 34.3982 104.023 34.4517 103.932 34.5233C103.823 34.6082 103.768 34.6528 103.764 34.6565V34.272Z" fill="#3B4D62"/>
</g>
</g>
<defs>
<clipPath id="clip0_1_3167">
<rect width="81.3" height="19.2316" fill="white" transform="translate(27.6 18.8501)"/>
</clipPath>
</defs>
</svg>
