<svg width="24" height="25" viewBox="0 0 24 25" fill="none" xmlns="http://www.w3.org/2000/svg">
<rect y="0.5" width="24" height="24" rx="12" fill="#85AAD5"/>
<path d="M6.66667 8.49992L12.1524 12.4999L17.3333 8.49992M18 9.96655V15.0332C18 15.78 18.0001 16.1534 17.8548 16.4386C17.727 16.6895 17.5227 16.8934 17.2719 17.0212C16.9866 17.1666 16.6135 17.1666 15.8668 17.1666H8.13346C7.38673 17.1666 7.01308 17.1666 6.72786 17.0212C6.47698 16.8934 6.27316 16.6895 6.14532 16.4386C6 16.1534 6 15.78 6 15.0332V9.96655C6 9.21982 6 8.84649 6.14532 8.56128C6.27316 8.3104 6.47698 8.10641 6.72786 7.97858C7.01308 7.83325 7.38673 7.83325 8.13346 7.83325H15.8668C16.6135 7.83325 16.9866 7.83325 17.2719 7.97858C17.5227 8.10641 17.727 8.3104 17.8548 8.56128C18.0001 8.84649 18 9.21982 18 9.96655Z" stroke="white" stroke-linecap="round" stroke-linejoin="round"/>
</svg>
