<svg width="24" height="24" viewBox="0 0 24 24" fill="none" xmlns="http://www.w3.org/2000/svg">
<path d="M10.3078 13.6922L15.1539 8.84607M20.1113 5.88855L16.0207 19.1831C15.6539 20.3749 15.4707 20.9708 15.1544 21.1684C14.8802 21.3398 14.5403 21.3679 14.2416 21.244C13.8972 21.1011 13.618 20.5434 13.0603 19.4281L10.4694 14.2462C10.3809 14.0692 10.3366 13.9807 10.2775 13.904C10.225 13.836 10.1643 13.7749 10.0962 13.7225C10.0195 13.6634 9.93082 13.6191 9.75383 13.5306L4.57192 10.9397C3.45662 10.382 2.89892 10.1033 2.75601 9.75891C2.63207 9.46022 2.66033 9.11992 2.83169 8.84567C3.02928 8.52943 3.62523 8.34614 4.81704 7.97943L18.1116 3.88879C19.0486 3.6005 19.5169 3.45633 19.8334 3.57251C20.1091 3.67371 20.3265 3.89096 20.4277 4.16662C20.5439 4.48311 20.3996 4.95159 20.1113 5.88855Z" stroke="white" stroke-opacity="0.5" stroke-width="1.5" stroke-linecap="round" stroke-linejoin="round"/>
</svg>
