<svg width="24" height="24" viewBox="0 0 24 24" fill="none" xmlns="http://www.w3.org/2000/svg">
<path fill-rule="evenodd" clip-rule="evenodd" d="M12 0C14.235 0.0255045 16.2541 0.574809 18.0574 1.64791C19.8391 2.69959 21.3212 4.19079 22.362 5.9789C23.4286 7.79299 23.9746 9.82436 24 12.073C23.9367 15.1497 22.9663 17.7775 21.0888 19.9564C19.2113 22.1353 16.8067 23.4832 14.3175 24V15.3739H16.6708L17.203 11.9841H13.6395V9.76385C13.6197 9.30358 13.7653 8.85141 14.0499 8.48912C14.3349 8.12583 14.8367 7.93489 15.5554 7.9163H17.7073V4.94688C17.6764 4.93694 17.3835 4.89766 16.8284 4.82903C16.1989 4.75537 15.5658 4.71603 14.932 4.71118C13.4975 4.71779 12.363 5.12243 11.5286 5.9251C10.6941 6.72753 10.2678 7.88849 10.2497 9.40796V11.9841H7.53783V15.3739H10.2497V24C7.19328 23.4832 4.78868 22.1353 2.9112 19.9564C1.03371 17.7775 0.0633511 15.1497 0 12.073C0.0253463 9.82425 0.571329 7.79289 1.63795 5.9789C2.67876 4.19079 4.1609 2.6996 5.94263 1.64791C7.74581 0.575015 9.76492 0.0257111 12 0Z" fill="#1A497F"/>
</svg>
